<svg xmlns="http://www.w3.org/2000/svg" version="1.1" xmlns:xlink="http://www.w3.org/1999/xlink" xmlns:svgjs="http://svgjs.com/svgjs" width="1440" height="560" preserveAspectRatio="none" viewBox="0 0 1440 560"><g mask="url(&quot;#SvgjsMask1013&quot;)" fill="none"><rect width="1440" height="560" x="0" y="0" fill="#0e2a47"></rect><path d="M567.618433246447 74.66444752283125L470.88014563767706-22.073840085938684 470.88014563767706 171.40273513160122z" fill="rgba(28, 83, 142, 0.4)" class="triangle-float1"></path><path d="M1272.109,663.798C1313.45,661.821,1339.512,623.379,1358.48,586.593C1375.502,553.581,1382.513,515.83,1365.405,482.862C1346.906,447.214,1312.266,420.764,1272.109,420.15C1230.988,419.521,1194.402,444.374,1173.737,479.931C1152.963,515.676,1150.639,559.143,1170.142,595.597C1190.817,634.241,1228.332,665.891,1272.109,663.798" fill="rgba(28, 83, 142, 0.4)" class="triangle-float1"></path><path d="M13.712937766856548 422.452456129074L130.53464750611667 324.4274025733615 32.5095939504042 207.60569283410138-84.31211578885592 305.63074638981385z" fill="rgba(28, 83, 142, 0.4)" class="triangle-float1"></path><path d="M600.974,536.648C634.996,535.157,654.395,501.686,670.959,471.931C686.884,443.323,702.009,410.944,687.208,381.738C671.276,350.301,636.217,333.696,600.974,333.835C565.977,333.973,533.078,351.916,515.909,382.412C499.044,412.369,502.886,448.467,519.489,478.57C536.754,509.874,565.259,538.213,600.974,536.648" fill="rgba(28, 83, 142, 0.4)" class="triangle-float2"></path><path d="M1366.0269635091888 125.73956975506334L1255.5815213012643 239.8912619521003 1389.6978606155717 275.8276267631874z" fill="rgba(28, 83, 142, 0.4)" class="triangle-float1"></path><path d="M1074.3220008777582 51.87679682648052L1087.4268778283017-54.85386095472509 920.7784526812216-21.145847489937594z" fill="rgba(28, 83, 142, 0.4)" class="triangle-float3"></path></g><defs><mask id="SvgjsMask1013"><rect width="1440" height="560" fill="#ffffff"></rect></mask><style>
            @keyframes float1 {
                0%{transform: translate(0, 0)}
                50%{transform: translate(-10px, 0)}
                100%{transform: translate(0, 0)}
            }

            .triangle-float1 {
                animation: float1 5s infinite;
            }

            @keyframes float2 {
                0%{transform: translate(0, 0)}
                50%{transform: translate(-5px, -5px)}
                100%{transform: translate(0, 0)}
            }

            .triangle-float2 {
                animation: float2 4s infinite;
            }

            @keyframes float3 {
                0%{transform: translate(0, 0)}
                50%{transform: translate(0, -10px)}
                100%{transform: translate(0, 0)}
            }

            .triangle-float3 {
                animation: float3 6s infinite;
            }
        </style></defs></svg>